<svg width="45" height="40" viewBox="0 0 45 40" fill="none" xmlns="http://www.w3.org/2000/svg">
<g clip-path="url(#clip0_406_120)">
<path d="M20 33.2502H42.5C43.4686 33.2502 44.25 34.0316 44.25 35.0002C44.2499 35.9687 43.4685 36.7502 42.5 36.7502H20C19.0315 36.7502 18.2501 35.9687 18.25 35.0002C18.25 34.0316 19.0314 33.2502 20 33.2502ZM1.2627 3.76289C1.90347 3.12252 2.91685 3.08243 3.60449 3.64278L3.73828 3.76289L18.7354 18.7648C19.4189 19.4485 19.419 20.5519 18.7354 21.2355L3.7373 36.2355C3.05365 36.9189 1.94609 36.9188 1.2627 36.2355C0.579252 35.5519 0.579305 34.4485 1.2627 33.7648L14.4912 20.5305L15.0215 20.0002L14.4912 19.4699L1.2627 6.2375C0.579376 5.5539 0.579508 4.44658 1.2627 3.76289Z" stroke="#3294F8" stroke-width="1.5"/>
</g>
<defs>
<clipPath id="clip0_406_120">
<rect width="45" height="40" fill="white"/>
</clipPath>
</defs>
</svg>
